<svg xmlns="http://www.w3.org/2000/svg" viewBox="0 0 200 260" role="img" aria-label="Maggie">
  <g stroke="#1a1a1a" stroke-width="3" stroke-linejoin="round" stroke-linecap="round">
    <!-- pelito -->
    <path d="M76 126 L82 104 L92 120 L101 100 L110 120 L120 104 L126 126 Z" fill="#fed90f"/>
    <!-- osito azul -->
    <path d="M26 262 C26 232 58 214 82 208 L120 208 C144 214 176 232 176 262 Z" fill="#8fd0f0"/>
    <!-- cabeza -->
    <ellipse cx="101" cy="156" rx="47" ry="43" fill="#fed90f"/>
    <!-- ojos -->
    <circle cx="84" cy="150" r="13" fill="#fff"/>
    <circle cx="118" cy="150" r="13" fill="#fff"/>
    <circle cx="86" cy="152" r="4" fill="#1a1a1a" stroke="none"/>
    <circle cx="120" cy="152" r="4" fill="#1a1a1a" stroke="none"/>
    <!-- chupete -->
    <circle cx="101" cy="178" r="11" fill="#ff4d4d"/>
    <circle cx="101" cy="178" r="3.5" fill="#fff" stroke-width="2"/>
    <!-- mono azul -->
    <path d="M101 116 L78 100 L78 128 Z M101 116 L124 100 L124 128 Z" fill="#4a8fe0"/>
    <circle cx="101" cy="116" r="6" fill="#4a8fe0"/>
  </g>
</svg>
